<svg xmlns="http://www.w3.org/2000/svg" xml:space="preserve" width="988.89197" height="500" viewBox="0 0 988.89196 500"><path d="M0 0h-1.979v-5.735h-1.914V0h-1.98v-5.735h-3.101v-1.261H3.904v1.261H0Z" style="fill:#231916;fill-opacity:1;fill-rule:nonzero;stroke:none" transform="matrix(9.85804 0 0 -9.85804 382.952 365.452)"/><path d="M0 0h6.329v-3.761h1.979V0h5.895v1.259H0Z" style="fill:#231916;fill-opacity:1;fill-rule:nonzero;stroke:none" transform="matrix(9.85804 0 0 -9.85804 0 398.002)"/><path d="M0 0h-11.442v-1.26h9.467v-2.701H.006v3.685H0Z" style="fill:#231916;fill-opacity:1;fill-rule:nonzero;stroke:none" transform="matrix(9.85804 0 0 -9.85804 553.735 396.067)"/><path d="M0 0h-11.689v-1.26h9.838v-2.726h1.98V-.07H0Z" style="fill:#231916;fill-opacity:1;fill-rule:nonzero;stroke:none" transform="matrix(9.85804 0 0 -9.85804 840.639 396.067)"/><path d="M0 0h-3.568v.852s.005.224-.06.291c-.06.112-.273.12-.273.12-.735.087-1.558.286-2.025.388 0 0-.093.028-.118-.065-.014-.047.001-.097.057-.154.293-.226.348-.253.4-.344.042-.074.038-.274.038-.274V0h-3.545v-1.259H0Z" style="fill:#231916;fill-opacity:1;fill-rule:nonzero;stroke:none" transform="matrix(9.85804 0 0 -9.85804 815.455 315.498)"/><path d="M0 0h3.694v-1.216h1.98V0h2.037v-1.216h1.981V0h3.602v1.26H0Z" style="fill:#231916;fill-opacity:1;fill-rule:nonzero;stroke:none" transform="matrix(9.85804 0 0 -9.85804 431.665 379.749)"/><path d="M0 0c2.015 0 3.299-.675 3.299-1.757 0-1.079-1.284-1.754-3.299-1.754-2.018 0-3.3.675-3.3 1.754C-3.3-.675-2.018 0 0 0m0-4.806c3.273 0 5.555 1.297 5.555 3.049C5.555-.003 3.273 1.294 0 1.294c-3.274 0-5.558-1.297-5.558-3.051 0-1.752 2.284-3.049 5.558-3.049" style="fill:#231916;fill-opacity:1;fill-rule:nonzero;stroke:none" transform="matrix(9.85804 0 0 -9.85804 496.57 316.027)"/><path d="M0 0c0-1.032-.898-1.728-2.245-1.728-1.346 0-2.246.696-2.246 1.728 0 1.034.9 1.729 2.246 1.729C-.898 1.729 0 1.034 0 0m-6.252-.003c0-1.737 1.713-2.906 3.975-2.906 2.264 0 3.978 1.169 3.978 2.906C1.701 1.733-.013 2.9-2.277 2.9c-2.262 0-3.975-1.167-3.975-2.903" style="fill:#231916;fill-opacity:1;fill-rule:nonzero;stroke:none" transform="matrix(9.85804 0 0 -9.85804 793.284 359.599)"/><path d="M0 0h2.311S5.138 4.038 5.31 6.001c0 0 1.166-4.446 2.504-6.065h2.138S8.365 1.381 7.024 6.874c0 0-.08.288-.228.475-.184.228-.492.265-.492.265-.622.113-1.627.298-2.833.617 0 0-.126.052-.158-.068-.025-.095.076-.15.076-.15.174-.109.225-.153.34-.263 0 0 .116-.126.12-.235.005-.095-.004-.141-.004-.141C3.749 6.451 3.196 3.288 0 0" style="fill:#231916;fill-opacity:1;fill-rule:nonzero;stroke:none" transform="matrix(9.85804 0 0 -9.85804 145.878 384.86)"/><path d="M16.636 156.813h-59.393v12.628h59.393zm-74.313 34.772c.318-.547.289-2.011.289-2.011v-42.306h14.631v.237h59.393v-.237h14.631v45.3s.045 1.679-.428 2.152c-.444.843-2.026.902-2.026.902-5.427.636-11.52 2.114-14.972 2.868 0 0-.68.215-.873-.48-.103-.355.015-.717.422-1.146 2.166-1.671 2.58-1.87 2.965-2.543.31-.548.28-2.004.28-2.004v-13.56h-59.392v11.076s.03 1.663-.436 2.144c-.45.85-2.026.894-2.026.894-5.427.644-11.511 2.122-14.972 2.884 0 0-.68.192-.872-.48-.096-.363.015-.733.429-1.162 2.166-1.656 2.573-1.87 2.957-2.528" style="fill:#231916;fill-opacity:1;fill-rule:nonzero;stroke:none;stroke-width:7.39353" transform="matrix(1.33333 0 0 -1.33333 87.792 569.227)"/><path d="M0 0s.005.225-.058.29C-.12.404-.332.411-.332.411c-.734.087-1.558.286-2.025.39 0 0-.092.027-.119-.067-.011-.047.002-.097.059-.155.292-.225.348-.253.4-.344.042-.073.038-.271.038-.271v-1.715h-.034v-1.261h.034v-.026H0v.026h8.884v1.261H0Z" style="fill:#231916;fill-opacity:1;fill-rule:nonzero;stroke:none" transform="matrix(9.85804 0 0 -9.85804 188.448 404.73)"/><path d="M0 0s.005.225-.058.291C-.12.402-.331.41-.331.41c-.734.088-1.559.287-2.026.391 0 0-.093.027-.119-.067-.012-.046.001-.097.06-.155.292-.225.346-.252.398-.343.043-.074.039-.271.039-.271v-9.719H0v4.673h1.706v1.259H0Z" style="fill:#231916;fill-opacity:1;fill-rule:nonzero;stroke:none" transform="matrix(9.85804 0 0 -9.85804 276.189 309.684)"/><path d="M0 0c-.734.088-1.559.287-2.026.391 0 0-.091.027-.118-.067-.013-.047.002-.097.059-.155.292-.225.346-.252.399-.343.042-.074.039-.271.039-.271v-5.689h-1.337v5.477s.004.223-.058.291c-.062.112-.274.119-.274.119-.737.088-1.559.288-2.026.392 0 0-.093.024-.119-.068-.012-.047.002-.097.06-.154.29-.226.346-.253.398-.344.044-.074.039-.272.039-.272v-8.256c-1.206-.372-1.778-.374-2.412-.372v.002h-3.148v7.038h4.261v1.259h-6.24v-.224h-.001v-9.316h.001v-.018h5.127c1.466.01 2.055.261 2.412.411v-2.969h1.98v5.744h1.337v-5.744H.332V-.41s.006.224-.059.291C.213-.008 0 0 0 0" style="fill:#231916;fill-opacity:1;fill-rule:nonzero;stroke:none" transform="matrix(9.85804 0 0 -9.85804 701.587 305.64)"/><path d="M0 0s.004.225-.059.291C-.12.402-.333.41-.333.41c-.734.088-1.559.287-2.024.391 0 0-.093.027-.119-.067-.013-.046.002-.097.058-.155.292-.225.349-.252.4-.343.042-.074.037-.271.037-.271v-7.989H0v2.607h1.564v1.259H0Z" style="fill:#231916;fill-opacity:1;fill-rule:nonzero;stroke:none" transform="matrix(9.85804 0 0 -9.85804 841.208 309.684)"/><path d="M0 0s.055-1.771-.283-2.712h1.966c.139.333.338 1.747.296 2.712l-.041 6.38h-.636v.002H-9.347v-1.26h9.314z" style="fill:#231916;fill-opacity:1;fill-rule:nonzero;stroke:none" transform="matrix(9.85804 0 0 -9.85804 395.333 378.256)"/><path d="M0 0v5.735h-1.979V0h-1.916v5.735h-1.978V0h-3.101v-1.261H3.904V0Z" style="fill:#231916;fill-opacity:1;fill-rule:nonzero;stroke:none" transform="matrix(9.85804 0 0 -9.85804 950.406 421.991)"/><path d="M0 0s.057-1.771-.281-2.712h1.965c.137.333.336 1.747.297 2.712l-.042 6.38h-.636v.002H-9.346v-1.26h9.313z" style="fill:#231916;fill-opacity:1;fill-rule:nonzero;stroke:none" transform="matrix(9.85804 0 0 -9.85804 962.767 378.256)"/><path d="M0 0v15.122h-12.801c-1.195-2.434 0 0-1.189-2.434l11.529-.027V0Z" style="fill:#007d3c;fill-opacity:1;fill-rule:nonzero;stroke:none" transform="matrix(9.85804 0 0 -9.85804 644.624 253.471)"/><path d="M0 0v2.461h-11.427V0h.002l-.002-11.81v-.852H.744v2.46h-9.71V0Z" style="fill:#003994;fill-opacity:1;fill-rule:nonzero;stroke:none" transform="matrix(9.85804 0 0 -9.85804 772.865 127.704)"/><path d="m0 0-9.221 10.59-9.973-11.42.004-.001c1.853-.874 1.32-.626 2.487-1.127l7.494 8.676 8.02-9.153z" style="fill:#f39700;fill-opacity:1;fill-rule:nonzero;stroke:none" transform="matrix(9.85804 0 0 -9.85804 518.434 104.397)"/><path d="M181.053 256.892h-60.79v30.565h60.79zm0 50.69h-60.79v32.983h-18.195l.273-101.868h96.9l.23 95.435v.03c-18.403 8.325.014-.015-18.403 8.325z" style="fill:#c50f18;fill-opacity:1;fill-rule:nonzero;stroke:none;stroke-width:7.39353" transform="matrix(1.33333 0 0 -1.33333 87.792 569.227)"/><path d="M0 0c.189 0 .657.024.657.563 0 .292-.082.497-.398.541v.005c.242.048.363.225.363.468 0 .456-.28.553-.619.553h-.792V0Zm-.342 1.804h.274c.15 0 .257-.116.257-.273 0-.206-.136-.271-.235-.271h-.296zm0-.871h.258C.141.933.212.817.212.629.212.33 0 .328-.096.328h-.246z" style="fill:#231916;fill-opacity:1;fill-rule:nonzero;stroke:none" transform="matrix(9.85804 0 0 -9.85804 387.766 175.194)"/><path d="M0 0v-1.511c0-.318-.181-.654-.723-.654-.49 0-.726.253-.726.654V0h.445v-1.48c0-.263.113-.367.275-.367.194 0 .284.13.284.367V0Z" style="fill:#231916;fill-opacity:1;fill-rule:nonzero;stroke:none" transform="matrix(9.85804 0 0 -9.85804 411.9 154.198)"/><path d="M0 0c-.552 0-.655.324-.631.693h.445c0-.204.009-.375.254-.375.151 0 .225.098.225.243 0 .382-.898.407-.898 1.042 0 .332.16.597.702.597.433 0 .65-.193.62-.639H.283c0 .16-.026.322-.207.322-.143 0-.228-.08-.228-.228 0-.404.895-.368.895-1.039C.743.065.339 0 0 0" style="fill:#231916;fill-opacity:1;fill-rule:nonzero;stroke:none" transform="matrix(9.85804 0 0 -9.85804 421.181 175.54)"/><path d="m0 0 .121.473h.608L.849 0h.468L.739 2.13H.151L-.439 0Zm.635.799H.211l.202.921h.006z" style="fill:#231916;fill-opacity:1;fill-rule:nonzero;stroke:none" transform="matrix(9.85804 0 0 -9.85804 434.38 175.194)"/><path d="M0 0v2.13h.601L1.169.655h.004V2.13h.417V0h-.587l-.58 1.558H.416V0Z" style="fill:#231916;fill-opacity:1;fill-rule:nonzero;stroke:none" transform="matrix(9.85804 0 0 -9.85804 449.456 175.194)"/><path d="M0 0v2.13h.604L1.169.655h.007V2.13h.415V0h-.586L.423 1.558H.417V0Z" style="fill:#231916;fill-opacity:1;fill-rule:nonzero;stroke:none" transform="matrix(9.85804 0 0 -9.85804 475.305 175.194)"/><path d="m0 0 .118.473h.611L.846 0h.467L.735 2.13H.149L-.44 0Zm.633.799H.207l.205.921h.006z" style="fill:#231916;fill-opacity:1;fill-rule:nonzero;stroke:none" transform="matrix(9.85804 0 0 -9.85804 497.437 175.194)"/><path d="M0 0v-.354h-.495V-2.13h-.447v1.776h-.496V0Z" style="fill:#231916;fill-opacity:1;fill-rule:nonzero;stroke:none" transform="matrix(9.85804 0 0 -9.85804 523.228 154.198)"/><path d="M328.103 311.271h3.298v-15.748h-3.298Z" style="fill:#231916;fill-opacity:1;fill-rule:nonzero;stroke:none;stroke-width:7.39353" transform="matrix(1.33333 0 0 -1.33333 87.792 569.227)"/><path d="M0 0c.734 0 .734.542.734 1.101C.734 1.664.734 2.2 0 2.2c-.735 0-.735-.536-.735-1.099C-.735.542-.735 0 0 0m0 .318c-.251 0-.283.236-.283.783 0 .545.032.782.283.782s.283-.237.283-.782C.283.554.251.318 0 .318" style="fill:#231916;fill-opacity:1;fill-rule:nonzero;stroke:none" transform="matrix(9.85804 0 0 -9.85804 540.392 175.54)"/><path d="M0 0v2.13h.603L1.169.655h.004V2.13h.417V0h-.587L.421 1.558H.414V0Z" style="fill:#231916;fill-opacity:1;fill-rule:nonzero;stroke:none" transform="matrix(9.85804 0 0 -9.85804 551.155 175.194)"/><path d="m0 0 .122.473h.607L.848 0h.469L.738 2.13H.15L-.439 0Zm.635.799H.21l.204.921h.005z" style="fill:#231916;fill-opacity:1;fill-rule:nonzero;stroke:none" transform="matrix(9.85804 0 0 -9.85804 573.25 175.194)"/><path d="M0 0v2.13h.444V.354h.668V0Z" style="fill:#231916;fill-opacity:1;fill-rule:nonzero;stroke:none" transform="matrix(9.85804 0 0 -9.85804 588.325 175.194)"/><path d="M0 0v-1.51c0-.32-.179-.656-.722-.656-.489 0-.725.256-.725.656V0h.445v-1.481c0-.261.111-.367.273-.367.197 0 .285.132.285.367V0Z" style="fill:#231916;fill-opacity:1;fill-rule:nonzero;stroke:none" transform="matrix(9.85804 0 0 -9.85804 394.12 189.345)"/><path d="M0 0v2.131h.603L1.169.656h.006v1.475h.416V0h-.586L.423 1.558H.417V0Z" style="fill:#231916;fill-opacity:1;fill-rule:nonzero;stroke:none" transform="matrix(9.85804 0 0 -9.85804 397.73 210.352)"/><path d="M246.989 284.913h3.29v-15.755h-3.29z" style="fill:#231916;fill-opacity:1;fill-rule:nonzero;stroke:none;stroke-width:7.39353" transform="matrix(1.33333 0 0 -1.33333 87.792 569.227)"/><path d="M0 0h.463l.33-1.548H.8L1.171 0h.44l-.564-2.131H.526Z" style="fill:#231916;fill-opacity:1;fill-rule:nonzero;stroke:none" transform="matrix(9.85804 0 0 -9.85804 423.511 189.345)"/><path d="M0 0v2.131h1.163v-.327H.444v-.525h.662V.951H.444V.329h.741V0Z" style="fill:#231916;fill-opacity:1;fill-rule:nonzero;stroke:none" transform="matrix(9.85804 0 0 -9.85804 441.37 210.352)"/><path d="M0 0h.115c.342 0 .319-.214.319-.468 0-.14-.011-.284.047-.415h.437c-.041.09-.051.491-.051.627 0 .384-.288.408-.386.418v.006C.771.215.877.42.877.69c0 .365-.195.558-.5.558h-.822V-.883H0Zm0 .921h.198c.141 0 .228-.076.228-.28C.426.505.374.327.198.327H0Z" style="fill:#231916;fill-opacity:1;fill-rule:nonzero;stroke:none" transform="matrix(9.85804 0 0 -9.85804 460.219 201.65)"/><path d="M0 0c-.551 0-.656.324-.631.694h.444c0-.203.009-.376.255-.376.15 0 .224.099.224.245 0 .383-.898.406-.898 1.04 0 .333.161.599.703.599.435 0 .649-.195.621-.639H.282c0 .158-.024.32-.205.32-.145 0-.229-.078-.229-.228 0-.404.895-.367.895-1.037C.743.065.34 0 0 0" style="fill:#231916;fill-opacity:1;fill-rule:nonzero;stroke:none" transform="matrix(9.85804 0 0 -9.85804 477.788 210.699)"/><path d="M300.355 284.913h3.298v-15.755h-3.298z" style="fill:#231916;fill-opacity:1;fill-rule:nonzero;stroke:none;stroke-width:7.39353" transform="matrix(1.33333 0 0 -1.33333 87.792 569.227)"/><path d="M0 0v-.354h-.496v-1.777h-.446v1.777h-.496V0Z" style="fill:#231916;fill-opacity:1;fill-rule:nonzero;stroke:none" transform="matrix(9.85804 0 0 -9.85804 508.854 189.345)"/><path d="m0 0-.559 1.394h.489l.317-.9.34.9h.456L.446 0v-.737H0Z" style="fill:#231916;fill-opacity:1;fill-rule:nonzero;stroke:none" transform="matrix(9.85804 0 0 -9.85804 514.756 203.084)"/><path d="M0 0c.733 0 .733.542.733 1.102 0 .563 0 1.1-.733 1.1-.734 0-.734-.537-.734-1.1C-.734.542-.734 0 0 0m0 .318c-.25 0-.283.239-.283.784 0 .544.033.781.283.781.251 0 .285-.237.285-.781C.285.557.251.318 0 .318" style="fill:#231916;fill-opacity:1;fill-rule:nonzero;stroke:none" transform="matrix(9.85804 0 0 -9.85804 540.556 210.699)"/><path d="M0 0v2.131h1.107v-.327h-.66v-.547h.632V.93H.447V0Z" style="fill:#231916;fill-opacity:1;fill-rule:nonzero;stroke:none" transform="matrix(9.85804 0 0 -9.85804 551.194 210.352)"/><path d="M0 0v2.13h1.163v-.329H.446v-.524h.66V.948h-.66V.326h.742V0Z" style="fill:#231916;fill-opacity:1;fill-rule:nonzero;stroke:none" transform="matrix(9.85804 0 0 -9.85804 379.93 245.481)"/><path d="M0 0h.725c.762 0 .712.749.712 1.076 0 .663-.11 1.054-.694 1.054H0Zm.444 1.801h.231c.31 0 .31-.345.31-.737C.985.529.931.326.66.326H.444Z" style="fill:#231916;fill-opacity:1;fill-rule:nonzero;stroke:none" transform="matrix(9.85804 0 0 -9.85804 394.572 245.481)"/><path d="M0 0v-1.512c0-.317-.181-.654-.725-.654-.488 0-.724.254-.724.654V0h.444v-1.481c0-.263.112-.367.275-.367.195 0 .284.13.284.367V0Z" style="fill:#231916;fill-opacity:1;fill-rule:nonzero;stroke:none" transform="matrix(9.85804 0 0 -9.85804 426.457 224.484)"/><path d="M0 0c0 .563 0 1.101.734 1.101.454 0 .638-.252.62-.709H.916c0 .283-.05.39-.182.39C.482.782.452.545.452 0c0-.546.03-.782.282-.782.206 0 .197.267.204.433h.439c0-.569-.226-.752-.643-.752C0-1.101 0-.558 0 0" style="fill:#231916;fill-opacity:1;fill-rule:nonzero;stroke:none" transform="matrix(9.85804 0 0 -9.85804 429.826 234.987)"/><path d="m0 0 .122.472h.607L.847 0h.469L.738 2.13H.15L-.44 0Zm.635.799H.21l.204.921h.004z" style="fill:#231916;fill-opacity:1;fill-rule:nonzero;stroke:none" transform="matrix(9.85804 0 0 -9.85804 448.926 245.481)"/><path d="M0 0v-.354h-.496V-2.13h-.446v1.776h-.495V0Z" style="fill:#231916;fill-opacity:1;fill-rule:nonzero;stroke:none" transform="matrix(9.85804 0 0 -9.85804 474.746 224.484)"/><path d="M291.742 258.556h3.282v-15.749h-3.282z" style="fill:#231916;fill-opacity:1;fill-rule:nonzero;stroke:none;stroke-width:7.39353" transform="matrix(1.33333 0 0 -1.33333 87.792 569.227)"/><path d="M0 0c.734 0 .734.543.734 1.101 0 .562 0 1.1-.734 1.1-.736 0-.736-.538-.736-1.1C-.736.543-.736 0 0 0m0 .318c-.252 0-.284.237-.284.783 0 .545.032.782.284.782.25 0 .282-.237.282-.782C.282.555.25.318 0 .318" style="fill:#231916;fill-opacity:1;fill-rule:nonzero;stroke:none" transform="matrix(9.85804 0 0 -9.85804 491.91 245.837)"/><path d="M0 0v2.13h.603L1.169.654h.007V2.13h.416V0h-.588L.423 1.558H.417V0Z" style="fill:#231916;fill-opacity:1;fill-rule:nonzero;stroke:none" transform="matrix(9.85804 0 0 -9.85804 502.655 245.481)"/><path d="M0 0v-.839h.75c.135 0 .239.02.314.056.135.068.204.198.204.392 0 .163-.067.276-.198.338A.783.783 0 0 1 .76 0Zm0 1.208V.515h.754c.135 0 .244.026.327.077.085.054.127.145.127.277 0 .147-.056.242-.167.289-.096.033-.218.05-.367.05zm1.686.203a.804.804 0 0 0 .142-.475.693.693 0 0 0-.145-.459A.705.705 0 0 0 1.444.3a.7.7 0 0 0 .362-.276.823.823 0 0 0 .122-.456.915.915 0 0 0-.14-.498.905.905 0 0 0-.219-.246.897.897 0 0 0-.351-.155 2.089 2.089 0 0 0-.439-.043h-1.4v3.116H.88c.379-.006.648-.116.806-.331" style="fill:#231916;fill-opacity:1;fill-rule:nonzero;stroke:none" transform="matrix(9.85804 0 0 -9.85804 16.135 485.684)"/><path d="M0 0h.661v-1.915c0-.215.025-.371.076-.469.078-.176.251-.262.516-.262.264 0 .435.086.514.262.049.098.076.254.076.469V0h.66v-1.913c0-.332-.052-.589-.154-.775-.191-.338-.557-.506-1.096-.506s-.904.168-1.099.506C.052-2.502 0-2.245 0-1.913Z" style="fill:#231916;fill-opacity:1;fill-rule:nonzero;stroke:none" transform="matrix(9.85804 0 0 -9.85804 40.616 468.51)"/><path d="M0 0a.657.657 0 0 1 .118-.322C.226-.451.41-.515.671-.515c.156 0 .283.017.38.05.184.066.277.187.277.364a.27.27 0 0 1-.137.241 1.559 1.559 0 0 1-.43.146L.425.359c-.33.075-.555.153-.679.24-.21.143-.313.367-.313.673 0 .279.102.51.306.695.203.184.503.278.899.278.33 0 .611-.088.844-.262.234-.173.356-.424.368-.754h-.622a.436.436 0 0 1-.249.391.86.86 0 0 1-.385.076.736.736 0 0 1-.407-.099.32.32 0 0 1-.154-.281c0-.109.05-.191.151-.246.065-.036.202-.08.411-.128l.544-.13c.237-.056.415-.132.533-.226.184-.147.275-.358.275-.638a.9.9 0 0 0-.327-.709c-.219-.188-.528-.282-.928-.282-.407 0-.728.092-.962.276-.233.188-.35.442-.35.767z" style="fill:#231916;fill-opacity:1;fill-rule:nonzero;stroke:none" transform="matrix(9.85804 0 0 -9.85804 76.111 489.718)"/><path d="M0 0h.799L.406 1.23Zm.044 1.941H.78l1.1-3.116h-.705L.97-.534H-.175l-.212-.641h-.679z" style="fill:#231916;fill-opacity:1;fill-rule:nonzero;stroke:none" transform="matrix(9.85804 0 0 -9.85804 108.256 487.648)"/><path d="M0 0h.677l1.238-2.17V0h.601v-3.116h-.645L.601-.903v-2.213H0Z" style="fill:#231916;fill-opacity:1;fill-rule:nonzero;stroke:none" transform="matrix(9.85804 0 0 -9.85804 130.687 468.51)"/><path d="M0 0h.677l1.238-2.17V0h.602v-3.116h-.646L.602-.903v-2.213H0Z" style="fill:#231916;fill-opacity:1;fill-rule:nonzero;stroke:none" transform="matrix(9.85804 0 0 -9.85804 173.344 468.51)"/><path d="M0 0h.798L.404 1.23Zm.042 1.941h.737l1.1-3.116h-.706l-.204.641H-.177l-.212-.641h-.68z" style="fill:#231916;fill-opacity:1;fill-rule:nonzero;stroke:none" transform="matrix(9.85804 0 0 -9.85804 212.545 487.648)"/><path d="M0 0v-.553h-.938v-2.563h-.646v2.563h-.937V0Z" style="fill:#231916;fill-opacity:1;fill-rule:nonzero;stroke:none" transform="matrix(9.85804 0 0 -9.85804 254.201 468.51)"/><path d="M131.96 52.498h-4.791v23.038h4.79z" style="fill:#231916;fill-opacity:1;fill-rule:nonzero;stroke:none;stroke-width:7.39353" transform="matrix(1.33333 0 0 -1.33333 87.792 569.227)"/><path d="M0 0c.151.189.228.46.228.81 0 .35-.077.619-.228.81a.74.74 0 0 1-.614.286.754.754 0 0 1-.617-.285c-.154-.19-.231-.46-.231-.811 0-.35.077-.621.231-.81a.754.754 0 0 1 .617-.285C-.356-.285-.15-.19 0 0m.403-.471C.168-.712-.171-.833-.616-.833c-.445 0-.785.121-1.02.362-.315.296-.473.723-.473 1.281 0 .569.158.997.473 1.283.235.24.575.362 1.02.362.445 0 .784-.122 1.019-.362.315-.286.471-.714.471-1.283C.874.252.718-.175.403-.471" style="fill:#231916;fill-opacity:1;fill-rule:nonzero;stroke:none" transform="matrix(9.85804 0 0 -9.85804 289.484 491.787)"/><path d="M0 0h.677l1.238-2.17V0h.601v-3.116h-.645L.601-.903v-2.213H0Z" style="fill:#231916;fill-opacity:1;fill-rule:nonzero;stroke:none" transform="matrix(9.85804 0 0 -9.85804 302.914 468.51)"/><path d="M0 0h.798L.404 1.23Zm.043 1.941h.736l1.1-3.116h-.705L.97-.534H-.176l-.212-.641h-.681z" style="fill:#231916;fill-opacity:1;fill-rule:nonzero;stroke:none" transform="matrix(9.85804 0 0 -9.85804 342.106 487.648)"/><path d="M0 0h.648v-2.554h1.558v-.562H0Z" style="fill:#231916;fill-opacity:1;fill-rule:nonzero;stroke:none" transform="matrix(9.85804 0 0 -9.85804 364.527 468.51)"/><path d="M0 0h.66v-1.915c0-.215.026-.371.075-.469.079-.176.251-.262.517-.262.263 0 .435.086.513.262.05.098.076.254.076.469V0h.66v-1.913c0-.332-.052-.589-.154-.775-.192-.338-.556-.506-1.095-.506-.539 0-.906.168-1.098.506-.102.186-.154.443-.154.775Z" style="fill:#231916;fill-opacity:1;fill-rule:nonzero;stroke:none" transform="matrix(9.85804 0 0 -9.85804 401.697 468.51)"/><path d="M0 0h.678l1.237-2.17V0h.601v-3.116h-.645L.602-.903v-2.213H0Z" style="fill:#231916;fill-opacity:1;fill-rule:nonzero;stroke:none" transform="matrix(9.85804 0 0 -9.85804 432.493 468.51)"/><path d="M286.026 52.498h-4.776v23.038h4.776z" style="fill:#231916;fill-opacity:1;fill-rule:nonzero;stroke:none;stroke-width:7.39353" transform="matrix(1.33333 0 0 -1.33333 87.792 569.227)"/><path d="M0 0h.673L-.39-3.116h-.612L-2.057 0h.697l.676-2.364z" style="fill:#231916;fill-opacity:1;fill-rule:nonzero;stroke:none" transform="matrix(9.85804 0 0 -9.85804 493.21 468.51)"/><path d="M0 0h-1.617v-.666h1.485V-1.2h-1.485v-.806H.079v-.562h-2.33V.548H0Z" style="fill:#231916;fill-opacity:1;fill-rule:nonzero;stroke:none" transform="matrix(9.85804 0 0 -9.85804 526.058 473.91)"/><path d="M0 0v-.845h.705c.141 0 .245.017.316.052.125.059.187.177.187.355 0 .19-.062.317-.181.382A.648.648 0 0 1 .724 0Zm1.349.454a.77.77 0 0 0 .29-.218 1 1 0 0 0 .158-.262.937.937 0 0 0-.053-.764.625.625 0 0 0-.367-.305.576.576 0 0 0 .304-.245c.058-.105.088-.269.088-.487v-.209c0-.143.005-.239.017-.289a.255.255 0 0 1 .121-.177v-.08h-.715c-.017.07-.032.124-.04.167a1.418 1.418 0 0 0-.026.269l-.004.291c-.004.198-.038.33-.105.396-.067.065-.191.1-.375.1H0v-1.223h-.635V.534H.856c.212-.004.377-.031.493-.08" style="fill:#231916;fill-opacity:1;fill-rule:nonzero;stroke:none" transform="matrix(9.85804 0 0 -9.85804 538.515 473.776)"/><path d="M0 0a.657.657 0 0 1 .118-.322C.227-.451.41-.515.67-.515c.156 0 .283.017.381.05.183.066.276.187.276.364A.272.272 0 0 1 1.19.14a1.537 1.537 0 0 1-.429.146L.425.359c-.329.075-.557.153-.679.24-.209.143-.312.367-.312.673 0 .279.1.51.304.695.205.184.504.278.901.278.33 0 .61-.088.844-.262.233-.173.354-.424.367-.754h-.621a.44.44 0 0 1-.25.391.865.865 0 0 1-.384.076.74.74 0 0 1-.408-.099.316.316 0 0 1-.153-.281c0-.109.05-.191.15-.246.065-.036.201-.08.412-.128l.542-.13c.237-.056.417-.132.535-.226.184-.147.274-.358.274-.638a.894.894 0 0 0-.328-.709c-.218-.188-.526-.282-.927-.282-.407 0-.728.092-.961.276C-.504-.579-.62-.325-.62 0Z" style="fill:#231916;fill-opacity:1;fill-rule:nonzero;stroke:none" transform="matrix(9.85804 0 0 -9.85804 567.55 489.718)"/><path d="M382.046 52.498h-4.783v23.038h4.783z" style="fill:#231916;fill-opacity:1;fill-rule:nonzero;stroke:none;stroke-width:7.39353" transform="matrix(1.33333 0 0 -1.33333 87.792 569.227)"/><path d="M0 0v-.553h-.938v-2.563h-.646v2.563h-.937V0Z" style="fill:#231916;fill-opacity:1;fill-rule:nonzero;stroke:none" transform="matrix(9.85804 0 0 -9.85804 625.563 468.51)"/><path d="M0 0h.736L-.305-1.949v-1.167h-.648v1.162L-2.029 0h.767l.642-1.356z" style="fill:#231916;fill-opacity:1;fill-rule:nonzero;stroke:none" transform="matrix(9.85804 0 0 -9.85804 646.762 468.51)"/><path d="M0 0c.151.189.228.46.228.81 0 .35-.077.619-.228.81a.746.746 0 0 1-.615.286.755.755 0 0 1-.618-.285c-.154-.19-.23-.46-.23-.811 0-.35.076-.621.23-.81a.755.755 0 0 1 .618-.285c.258 0 .462.095.615.285m.403-.471C.168-.712-.173-.833-.617-.833c-.445 0-.784.121-1.02.362-.316.296-.473.723-.473 1.281 0 .569.157.997.473 1.283.236.24.575.362 1.02.362.444 0 .785-.122 1.02-.362.313-.286.471-.714.471-1.283C.874.252.716-.175.403-.471" style="fill:#231916;fill-opacity:1;fill-rule:nonzero;stroke:none" transform="matrix(9.85804 0 0 -9.85804 688.552 491.787)"/><path d="M0 0h2.219v-.548H.647v-.719h1.381v-.535H.647v-1.314H0Z" style="fill:#231916;fill-opacity:1;fill-rule:nonzero;stroke:none" transform="matrix(9.85804 0 0 -9.85804 701.963 468.51)"/><path d="M0 0h-1.617v-.666h1.485V-1.2h-1.485v-.806H.079v-.562h-2.331V.548H0Z" style="fill:#231916;fill-opacity:1;fill-rule:nonzero;stroke:none" transform="matrix(9.85804 0 0 -9.85804 762.333 473.91)"/><path d="M0 0v-2.047h.6c.306 0 .52.153.642.457.065.168.098.366.098.599 0 .318-.05.564-.148.735C1.092-.086.896 0 .6 0Zm1.188.466c.22-.07.396-.202.533-.395a1.39 1.39 0 0 0 .22-.502c.039-.18.06-.353.06-.516 0-.414-.084-.765-.249-1.053-.226-.388-.574-.582-1.044-.582H-.635V.534H.708c.193-.002.354-.025.48-.068" style="fill:#231916;fill-opacity:1;fill-rule:nonzero;stroke:none" transform="matrix(9.85804 0 0 -9.85804 774.646 473.776)"/><path d="M0 0h.66v-1.915c0-.215.026-.371.075-.469.079-.176.251-.262.517-.262.263 0 .435.086.513.262.051.098.078.254.078.469V0h.66v-1.913c0-.332-.052-.589-.155-.775-.193-.338-.557-.506-1.096-.506s-.906.168-1.098.506C.052-2.502 0-2.245 0-1.913Z" style="fill:#231916;fill-opacity:1;fill-rule:nonzero;stroke:none" transform="matrix(9.85804 0 0 -9.85804 799.147 468.51)"/><path d="M0 0c.252.256.57.384.959.384.52 0 .899-.172 1.14-.515.132-.192.205-.386.213-.58h-.647a.916.916 0 0 1-.16.342c-.116.137-.289.205-.518.205A.642.642 0 0 1 .435-.45C.3-.641.233-.912.233-1.262c0-.349.071-.612.212-.786a.67.67 0 0 1 .541-.262c.223 0 .393.076.511.226.066.08.118.201.162.361h.648a1.412 1.412 0 0 0-.429-.828c-.231-.213-.524-.319-.883-.319-.443 0-.793.142-1.048.43-.254.288-.382.682-.382 1.185 0 .542.146.962.435 1.255" style="fill:#231916;fill-opacity:1;fill-rule:nonzero;stroke:none" transform="matrix(9.85804 0 0 -9.85804 832.86 471.705)"/><path d="M0 0h.797L.405 1.23Zm.043 1.941H.78l1.099-3.116h-.705l-.206.641H-.177l-.21-.641h-.681z" style="fill:#231916;fill-opacity:1;fill-rule:nonzero;stroke:none" transform="matrix(9.85804 0 0 -9.85804 869.144 487.648)"/><path d="M0 0v-.553h-.938v-2.563h-.646v2.563h-.938V0Z" style="fill:#231916;fill-opacity:1;fill-rule:nonzero;stroke:none" transform="matrix(9.85804 0 0 -9.85804 910.81 468.51)"/><path d="M624.406 52.498h-4.776v23.038h4.776z" style="fill:#231916;fill-opacity:1;fill-rule:nonzero;stroke:none;stroke-width:7.39353" transform="matrix(1.33333 0 0 -1.33333 87.792 569.227)"/><path d="M0 0c.152.189.229.46.229.81 0 .35-.077.619-.229.81a.742.742 0 0 1-.613.286.75.75 0 0 1-.618-.285c-.155-.19-.232-.46-.232-.811 0-.35.077-.621.232-.81a.75.75 0 0 1 .618-.285c.257 0 .461.095.613.285m.404-.471C.17-.712-.171-.833-.616-.833c-.446 0-.785.121-1.02.362-.316.296-.473.723-.473 1.281 0 .569.157.997.473 1.283.235.24.574.362 1.02.362.445 0 .786-.122 1.02-.362.314-.286.471-.714.471-1.283C.875.252.718-.175.404-.471" style="fill:#231916;fill-opacity:1;fill-rule:nonzero;stroke:none" transform="matrix(9.85804 0 0 -9.85804 946.083 491.787)"/><path d="M0 0h.677l1.237-2.17V0h.602v-3.116H1.87L.601-.903v-2.213H0Z" style="fill:#231916;fill-opacity:1;fill-rule:nonzero;stroke:none" transform="matrix(9.85804 0 0 -9.85804 959.513 468.51)"/></svg>